<svg width="182" height="213" viewBox="0 0 182 213" fill="none" xmlns="http://www.w3.org/2000/svg">
<path d="M0 161.513C0 161.735 0.179414 161.913 0.402835 161.913H181.597C181.821 161.913 182 161.735 182 161.513C182 161.291 181.821 161.113 181.597 161.113H0.402835C0.179414 161.113 0 161.291 0 161.513Z" fill="#2F2E43"/>
<path d="M54.403 7.337L52.9778 10.8752C52.9778 10.8752 51.6644 15.828 53.2046 17.8038C54.7415 19.7762 55.0834 34.9001 53.4314 36.0157C51.7795 37.1346 74.3687 25.6598 74.3687 25.6598C74.3687 25.6598 65.5503 5.36125 65.4014 5.28733C65.2524 5.21341 59.474 3.42582 59.474 3.42582L54.4098 7.337H54.403Z" fill="#2F2E43"/>
<path d="M69.1115 24.8264L61.5423 27.2961V16.4833H68.4074L69.1115 24.8264Z" fill="#F3A3A6"/>
<path d="M45.9739 86.2159C45.5643 88.6923 43.8988 90.4698 42.257 90.1842C40.6152 89.8986 39.6132 87.6574 40.0262 85.1776C40.1751 84.1864 40.5712 83.2455 41.1805 82.4425L43.0559 71.969L48.1607 73.0308L45.7674 83.2422C46.0822 84.2099 46.1533 85.228 45.9739 86.2159Z" fill="#F3A3A6"/>
<path d="M66.2646 145.888H59.1761V155.871H66.2646V145.888Z" fill="#F3A3A6"/>
<path d="M52.2737 161.913C51.529 161.913 50.8655 161.896 50.3645 161.849C48.4823 161.678 46.6848 160.297 45.781 159.49C45.3747 159.127 45.2461 158.549 45.456 158.052C45.6083 157.696 45.9096 157.427 46.2854 157.323L51.2615 155.912L59.3182 150.515L59.4096 150.676C59.4435 150.737 60.2356 152.152 60.4997 153.106C60.6012 153.469 60.5741 153.771 60.4218 154.006C60.3169 154.168 60.1679 154.262 60.0494 154.315C60.195 154.467 60.652 154.776 62.0602 154.998C64.115 155.32 64.5483 153.207 64.5652 153.119L64.5788 153.049L64.6397 153.008C65.618 152.383 66.2206 152.098 66.4271 152.158C66.5557 152.195 66.7724 152.262 67.358 158.018C67.4155 158.2 67.8252 159.524 67.5476 160.79C67.2463 162.168 61.1801 161.694 59.9648 161.587C59.931 161.59 55.3881 161.913 52.2771 161.913H52.2737Z" fill="#2F2E43"/>
<path d="M86.4501 138.05L80.4354 141.773L85.7576 150.244L91.7722 146.52L86.4501 138.05Z" fill="#F3A3A6"/>
<path d="M78.4613 160.545C77.6286 160.545 76.8636 160.444 76.3185 160.35C75.7837 160.256 75.3639 159.833 75.2759 159.302C75.215 158.919 75.3267 158.532 75.5907 158.247L79.0605 154.436L83.0212 145.626L83.1837 145.714C83.2446 145.747 84.6697 146.53 85.4043 147.202C85.6853 147.457 85.8241 147.73 85.8173 148.009C85.8173 148.203 85.7395 148.358 85.665 148.469C85.8681 148.523 86.4199 148.543 87.7333 147.992C89.6493 147.189 88.891 145.166 88.8572 145.082L88.8301 145.015L88.8606 144.951C89.3582 143.906 89.7136 143.348 89.9235 143.291C90.0555 143.254 90.2722 143.197 93.8368 147.777C93.9823 147.898 95.0351 148.808 95.4752 150.028C95.9525 151.355 90.5532 154.141 89.4665 154.685C89.4327 154.712 83.7828 158.788 81.4606 159.947C80.5398 160.407 79.4498 160.549 78.458 160.549L78.4613 160.545Z" fill="#2F2E43"/>
<path d="M71.4845 62.406H51.6373L49.8364 80.7322L57.7171 148.445H67.8489L63.7968 109.337L80.2318 144.645L89.2363 138.389L76.4032 105.426C76.4032 105.426 80.9867 76.7101 77.3849 69.5564C73.7831 62.406 71.4845 62.406 71.4845 62.406Z" fill="#2F2E43"/>
<path d="M81.3557 63.525H46.9116L59.2945 23.0758H73.0282L81.3557 63.525Z" fill="#6C63FF"/>
<path d="M61.4611 23.0792C61.4611 23.0792 52.9067 22.8541 52.0063 25.0919C51.1058 27.3264 40.5238 80.5138 40.5238 80.5138H47.504L61.4644 23.0792H61.4611Z" fill="#6C63FF"/>
<path d="M62.48 19.4738C66.6454 19.4738 70.0221 16.122 70.0221 11.9874C70.0221 7.85282 66.6454 4.50106 62.48 4.50106C58.3146 4.50106 54.9378 7.85282 54.9378 11.9874C54.9378 16.122 58.3146 19.4738 62.48 19.4738Z" fill="#F3A3A6"/>
<path d="M63.9424 0.35805C63.9424 0.35805 73.0214 -1.95035 75.8006 10.0419C75.8006 10.0419 75.8751 13.1702 77.4526 14.437C79.0301 15.7037 78.502 22.2593 78.502 22.2593C78.502 22.2593 81.5046 27.1752 78.9522 29.4097C78.9522 29.4097 77.8249 33.9526 79.4769 36.56C81.1289 39.1675 87.3576 53.5085 76.999 54.3821C76.999 54.3821 71.7452 51.2337 74.2231 41.8488C76.7011 32.464 73.9218 27.2794 73.9218 27.2794C73.9218 27.2794 65.9667 24.4165 66.4169 18.3078C66.8672 12.1991 61.3121 6.16434 60.9397 6.24162C60.5674 6.31891 56.6609 4.08106 54.9344 10.9357L53.0862 10.6232C53.0862 10.6232 52.3109 -0.908716 63.9424 0.35805Z" fill="#2F2E43"/>
<path d="M87.2357 85.0163C87.7401 87.4759 86.8159 89.7239 85.1775 90.0363C83.5391 90.3488 81.8025 88.6049 81.3015 86.1453C81.0882 85.1642 81.1221 84.1494 81.3997 83.1817L79.4058 72.7284L84.558 71.9186L85.9764 82.3081C86.6162 83.101 87.0461 84.0284 87.2357 85.0163Z" fill="#F3A3A6"/>
<path d="M67.0263 23.1262C67.0263 23.1262 74.5616 22.1787 75.4621 24.4131C76.3625 26.6476 86.9446 79.835 86.9446 79.835H79.9644L67.0263 23.1262Z" fill="#6C63FF"/>
<path d="M87.5336 78.7967C85.7056 80.5306 85.1674 82.8994 86.3352 84.0822C87.4997 85.2683 89.9269 84.8214 91.7583 83.0843C92.4996 82.4021 93.0548 81.5487 93.3831 80.5944L101.034 73.1416L97.2693 69.5598L90.13 77.2847C89.1483 77.5737 88.2614 78.0911 87.5404 78.7934H87.5336V78.7967Z" fill="#F3A3A6"/>
<path d="M90.5159 75.3089L104.635 57.3457L112.066 38.0418C112.878 35.935 114.588 34.3457 116.761 33.6837C118.934 33.0218 121.25 33.3813 123.112 34.675C126.155 36.7851 127.126 40.8273 125.373 44.0766L113.921 65.289L113.904 65.3226L94.3073 80.0467L90.5159 75.3156V75.3089Z" fill="#6C63FF"/>
<path d="M123.606 35.9585L114.798 38.8314V26.2511H122.787L123.606 35.9585Z" fill="#F3A3A6"/>
<path d="M115.888 29.7322C120.734 29.7322 124.662 25.8329 124.662 21.0228C124.662 16.2127 120.734 12.3133 115.888 12.3133C111.042 12.3133 107.113 16.2127 107.113 21.0228C107.113 25.8329 111.042 29.7322 115.888 29.7322Z" fill="#F3A3A6"/>
<path d="M118.122 21.7049L116.913 23.1632L114.727 19.3629C114.727 19.3629 111.934 19.5074 111.934 17.4476C111.934 15.3879 109.371 15.3341 109.371 15.3341C109.371 15.3341 105.742 9.04731 113.257 10.7038C113.257 10.7038 118.467 7.15892 121.06 10.1897C121.06 10.1897 129.005 14.1614 126.73 21.0765L122.953 28.2034L122.096 26.5905C122.096 26.5905 122.614 19.8165 118.122 21.7049Z" fill="#2F2E43"/>
<path d="M126.023 155.156H118.934V165.138H126.023V155.156Z" fill="#F3A3A6"/>
<path d="M112.029 171.18C111.284 171.18 110.62 171.163 110.119 171.116C108.237 170.945 106.44 169.564 105.536 168.757C105.13 168.394 105.001 167.816 105.211 167.319C105.363 166.963 105.665 166.694 106.04 166.59L111.016 165.179L119.073 159.782L119.165 159.944C119.198 160.004 119.991 161.419 120.255 162.373C120.356 162.736 120.329 163.038 120.177 163.274C120.072 163.435 119.923 163.529 119.804 163.583C119.95 163.734 120.407 164.043 121.815 164.265C123.87 164.587 124.303 162.474 124.32 162.387L124.334 162.316L124.395 162.276C125.373 161.651 125.976 161.365 126.182 161.426C126.311 161.462 126.527 161.53 127.113 167.286C127.17 167.467 127.58 168.791 127.303 170.058C127.001 171.435 120.935 170.962 119.72 170.854C119.686 170.857 115.143 171.18 112.032 171.18H112.029Z" fill="#2F2E43"/>
<path d="M141.035 140.192L135.573 144.677L141.984 152.369L147.446 147.884L141.035 140.192Z" fill="#F3A3A6"/>
<path d="M140.549 161.378C139.973 161.849 139.452 162.255 139.039 162.538C137.478 163.596 135.207 163.67 133.995 163.62C133.45 163.596 132.979 163.233 132.82 162.716C132.709 162.343 132.77 161.946 132.99 161.627L135.918 157.39L138.66 148.136L138.832 148.203C138.897 148.227 140.413 148.818 141.232 149.386C141.544 149.601 141.717 149.853 141.75 150.129C141.774 150.32 141.72 150.488 141.662 150.606C141.872 150.629 142.421 150.579 143.649 149.86C145.44 148.812 144.418 146.906 144.371 146.826L144.337 146.762L144.357 146.695C144.709 145.593 144.99 144.995 145.19 144.911C145.315 144.857 145.521 144.769 149.668 148.838C149.831 148.939 150.995 149.702 151.594 150.855C152.248 152.108 147.268 155.582 146.263 156.264C146.239 156.288 142.945 159.409 140.549 161.378Z" fill="#2F2E43"/>
<path d="M107.212 78.1718H131.527L126.124 157.951H118.02L107.215 78.1718H107.212Z" fill="#2F2E43"/>
<path d="M112.164 82.5668L107.212 78.1718L109.686 122.048L137.38 148.193L144.286 142.532L128.149 121.749L112.164 82.5668Z" fill="#2F2E43"/>
<path d="M112.164 31.2409L124.171 29.3055L127.902 35.7771C132.641 44.0027 134.574 53.532 133.413 62.9403L131.527 78.1718H107.212L112.164 31.2409Z" fill="#6C63FF"/>
<path d="M87.6318 81.9452C85.6142 83.4606 84.8051 85.7488 85.8241 87.0593C86.843 88.3697 89.3074 88.2051 91.325 86.6897C92.1408 86.0949 92.7941 85.312 93.2274 84.4014L101.69 77.8761L98.3661 73.8842L90.3737 80.7422C89.365 80.917 88.4239 81.3303 87.625 81.9452H87.6318Z" fill="#F3A3A6"/>
<path d="M91 78.8203L107.113 62.5942L116.737 44.2715C117.787 42.2722 119.672 40.8878 121.91 40.4779C124.144 40.068 126.402 40.6929 128.105 42.1882C130.884 44.6344 131.378 48.7606 129.259 51.7847L115.417 71.5422L115.397 71.5725L94.2193 83.9512L91.0034 78.8169H91V78.8203Z" fill="#6C63FF"/>
<path d="M51.18 208.42C49.78 208.42 48.5733 208.12 47.56 207.52C46.5467 206.907 45.7667 206.06 45.22 204.98C44.6733 203.887 44.4 202.627 44.4 201.2C44.4 199.773 44.6733 198.513 45.22 197.42C45.7667 196.327 46.5467 195.473 47.56 194.86C48.5733 194.247 49.78 193.94 51.18 193.94C52.8867 193.94 54.28 194.36 55.36 195.2C56.44 196.04 57.1133 197.227 57.38 198.76H54.42C54.2467 198.013 53.8867 197.433 53.34 197.02C52.7933 196.593 52.0667 196.38 51.16 196.38C50.32 196.38 49.6 196.58 49 196.98C48.4 197.367 47.94 197.92 47.62 198.64C47.3133 199.347 47.16 200.2 47.16 201.2C47.16 202.187 47.3133 203.04 47.62 203.76C47.94 204.48 48.4 205.033 49 205.42C49.6 205.807 50.32 206 51.16 206C52.0667 206 52.7933 205.807 53.34 205.42C53.8867 205.02 54.2467 204.467 54.42 203.76H57.38C57.1133 205.213 56.44 206.353 55.36 207.18C54.28 208.007 52.8867 208.42 51.18 208.42Z" fill="black"/>
<path d="M63.0052 208.42C62.1652 208.42 61.4718 208.287 60.9252 208.02C60.3785 207.74 59.9718 207.373 59.7052 206.92C59.4385 206.467 59.3052 205.967 59.3052 205.42C59.3052 204.807 59.4585 204.267 59.7652 203.8C60.0852 203.333 60.5652 202.973 61.2052 202.72C61.8452 202.453 62.6452 202.32 63.6052 202.32H66.1052C66.1052 201.827 66.0318 201.427 65.8852 201.12C65.7518 200.8 65.5452 200.56 65.2652 200.4C64.9852 200.24 64.6185 200.16 64.1652 200.16C63.6585 200.16 63.2185 200.273 62.8452 200.5C62.4852 200.727 62.2652 201.067 62.1852 201.52H59.5652C59.6318 200.787 59.8718 200.16 60.2852 199.64C60.6985 199.107 61.2385 198.693 61.9052 198.4C62.5852 198.107 63.3452 197.96 64.1852 197.96C65.1318 197.96 65.9452 198.12 66.6252 198.44C67.3185 198.747 67.8518 199.207 68.2252 199.82C68.6118 200.42 68.8052 201.153 68.8052 202.02V208.18H66.5252L66.2252 206.64C66.0785 206.907 65.9052 207.147 65.7052 207.36C65.5052 207.573 65.2718 207.76 65.0052 207.92C64.7385 208.08 64.4385 208.2 64.1052 208.28C63.7718 208.373 63.4052 208.42 63.0052 208.42ZM63.6452 206.34C63.9918 206.34 64.3052 206.28 64.5852 206.16C64.8652 206.027 65.0985 205.853 65.2852 205.64C65.4852 205.413 65.6385 205.16 65.7452 204.88C65.8652 204.6 65.9452 204.3 65.9852 203.98V203.96H63.9052C63.5052 203.96 63.1718 204.013 62.9052 204.12C62.6385 204.227 62.4452 204.373 62.3252 204.56C62.2052 204.733 62.1452 204.94 62.1452 205.18C62.1452 205.433 62.2052 205.647 62.3252 205.82C62.4585 205.98 62.6318 206.107 62.8452 206.2C63.0718 206.293 63.3385 206.34 63.6452 206.34Z" fill="black"/>
<path d="M71.2648 208.18V198.2H73.6648L73.9248 200.06C74.1782 199.62 74.4782 199.247 74.8248 198.94C75.1848 198.633 75.5982 198.393 76.0648 198.22C76.5315 198.047 77.0448 197.96 77.6048 197.96V200.82H76.7848C76.3715 200.82 75.9915 200.867 75.6448 200.96C75.2982 201.04 74.9982 201.187 74.7448 201.4C74.5048 201.613 74.3115 201.907 74.1648 202.28C74.0315 202.64 73.9648 203.093 73.9648 203.64V208.18H71.2648Z" fill="black"/>
<path d="M84.0545 208.42C83.0412 208.42 82.1412 208.207 81.3545 207.78C80.5812 207.34 79.9745 206.733 79.5345 205.96C79.0945 205.187 78.8745 204.293 78.8745 203.28C78.8745 202.24 79.0879 201.32 79.5145 200.52C79.9545 199.72 80.5612 199.093 81.3345 198.64C82.1212 198.187 83.0279 197.96 84.0545 197.96C85.0545 197.96 85.9279 198.18 86.6745 198.62C87.4212 199.047 88.0079 199.633 88.4345 200.38C88.8612 201.113 89.0745 201.953 89.0745 202.9C89.0745 203.033 89.0679 203.18 89.0545 203.34C89.0545 203.5 89.0412 203.673 89.0145 203.86H80.8145V202.2H86.3345C86.2945 201.573 86.0612 201.073 85.6345 200.7C85.2212 200.327 84.7012 200.14 84.0745 200.14C83.6079 200.14 83.1812 200.247 82.7945 200.46C82.4079 200.66 82.1012 200.973 81.8745 201.4C81.6479 201.813 81.5345 202.34 81.5345 202.98V203.56C81.5345 204.093 81.6412 204.56 81.8545 204.96C82.0679 205.36 82.3612 205.673 82.7345 205.9C83.1212 206.113 83.5545 206.22 84.0345 206.22C84.5279 206.22 84.9412 206.113 85.2745 205.9C85.6079 205.687 85.8545 205.4 86.0145 205.04H88.7745C88.5879 205.68 88.2745 206.253 87.8345 206.76C87.3945 207.267 86.8545 207.673 86.2145 207.98C85.5745 208.273 84.8545 208.42 84.0545 208.42Z" fill="black"/>
<path d="M95.3119 212.82C94.3519 212.82 93.5119 212.7 92.7919 212.46C92.0852 212.233 91.5319 211.88 91.1319 211.4C90.7452 210.933 90.5519 210.353 90.5519 209.66C90.5519 209.193 90.6719 208.753 90.9119 208.34C91.1519 207.927 91.5052 207.553 91.9719 207.22C92.4385 206.887 93.0119 206.593 93.6919 206.34L94.6919 207.68C94.0919 207.88 93.6585 208.127 93.3919 208.42C93.1252 208.727 92.9919 209.047 92.9919 209.38C92.9919 209.687 93.0919 209.947 93.2919 210.16C93.5052 210.373 93.7852 210.527 94.1319 210.62C94.4785 210.727 94.8719 210.78 95.3119 210.78C95.7252 210.78 96.0852 210.727 96.3919 210.62C96.7119 210.513 96.9585 210.353 97.1319 210.14C97.3052 209.94 97.3919 209.707 97.3919 209.44C97.3919 209.08 97.2652 208.787 97.0119 208.56C96.7719 208.333 96.2785 208.193 95.5319 208.14C94.8519 208.087 94.2452 208.013 93.7119 207.92C93.1919 207.813 92.7319 207.693 92.3319 207.56C91.9452 207.413 91.6119 207.253 91.3319 207.08C91.0519 206.907 90.8252 206.733 90.6519 206.56V206.1L92.7919 203.8L94.7119 204.4L92.2119 206.9L92.9919 205.58C93.1252 205.673 93.2585 205.76 93.3919 205.84C93.5385 205.907 93.7185 205.967 93.9319 206.02C94.1452 206.073 94.4185 206.127 94.7519 206.18C95.0985 206.233 95.5319 206.28 96.0519 206.32C96.9319 206.4 97.6519 206.567 98.2119 206.82C98.7852 207.073 99.2052 207.413 99.4719 207.84C99.7385 208.253 99.8719 208.767 99.8719 209.38C99.8719 209.967 99.7052 210.52 99.3719 211.04C99.0519 211.573 98.5519 212 97.8719 212.32C97.2052 212.653 96.3519 212.82 95.3119 212.82ZM95.3319 205.24C94.4785 205.24 93.7452 205.08 93.1319 204.76C92.5319 204.427 92.0719 203.987 91.7519 203.44C91.4319 202.88 91.2719 202.267 91.2719 201.6C91.2719 200.92 91.4319 200.307 91.7519 199.76C92.0719 199.213 92.5385 198.78 93.1519 198.46C93.7652 198.127 94.4919 197.96 95.3319 197.96C96.1719 197.96 96.8919 198.127 97.4919 198.46C98.1052 198.78 98.5719 199.213 98.8919 199.76C99.2119 200.307 99.3719 200.92 99.3719 201.6C99.3719 202.267 99.2119 202.88 98.8919 203.44C98.5719 203.987 98.1052 204.427 97.4919 204.76C96.8919 205.08 96.1719 205.24 95.3319 205.24ZM95.3319 203.18C95.8385 203.18 96.2519 203.047 96.5719 202.78C96.8919 202.5 97.0519 202.107 97.0519 201.6C97.0519 201.107 96.8919 200.727 96.5719 200.46C96.2519 200.193 95.8385 200.06 95.3319 200.06C94.8119 200.06 94.3852 200.193 94.0519 200.46C93.7319 200.727 93.5719 201.107 93.5719 201.6C93.5719 202.107 93.7319 202.5 94.0519 202.78C94.3852 203.047 94.8119 203.18 95.3319 203.18ZM96.9719 200.1L96.5119 198.2H100.672V199.8L96.9719 200.1Z" fill="black"/>
<path d="M102.966 208.18V198.2H105.666V208.18H102.966ZM104.326 196.78C103.833 196.78 103.433 196.64 103.126 196.36C102.819 196.067 102.666 195.7 102.666 195.26C102.666 194.82 102.819 194.46 103.126 194.18C103.433 193.887 103.833 193.74 104.326 193.74C104.819 193.74 105.219 193.887 105.526 194.18C105.846 194.46 106.006 194.82 106.006 195.26C106.006 195.7 105.846 196.067 105.526 196.36C105.219 196.64 104.819 196.78 104.326 196.78Z" fill="black"/>
<path d="M111.035 208.18L107.375 198.2H110.215L112.675 205.64L115.155 198.2H117.955L114.315 208.18H111.035Z" fill="black"/>
<path d="M123.957 208.42C122.944 208.42 122.044 208.207 121.257 207.78C120.484 207.34 119.877 206.733 119.437 205.96C118.997 205.187 118.777 204.293 118.777 203.28C118.777 202.24 118.99 201.32 119.417 200.52C119.857 199.72 120.464 199.093 121.237 198.64C122.024 198.187 122.93 197.96 123.957 197.96C124.957 197.96 125.83 198.18 126.577 198.62C127.324 199.047 127.91 199.633 128.337 200.38C128.764 201.113 128.977 201.953 128.977 202.9C128.977 203.033 128.97 203.18 128.957 203.34C128.957 203.5 128.944 203.673 128.917 203.86H120.717V202.2H126.237C126.197 201.573 125.964 201.073 125.537 200.7C125.124 200.327 124.604 200.14 123.977 200.14C123.51 200.14 123.084 200.247 122.697 200.46C122.31 200.66 122.004 200.973 121.777 201.4C121.55 201.813 121.437 202.34 121.437 202.98V203.56C121.437 204.093 121.544 204.56 121.757 204.96C121.97 205.36 122.264 205.673 122.637 205.9C123.024 206.113 123.457 206.22 123.937 206.22C124.43 206.22 124.844 206.113 125.177 205.9C125.51 205.687 125.757 205.4 125.917 205.04H128.677C128.49 205.68 128.177 206.253 127.737 206.76C127.297 207.267 126.757 207.673 126.117 207.98C125.477 208.273 124.757 208.42 123.957 208.42Z" fill="black"/>
<path d="M131.128 208.18V198.2H133.528L133.788 200.06C134.041 199.62 134.341 199.247 134.688 198.94C135.048 198.633 135.461 198.393 135.928 198.22C136.395 198.047 136.908 197.96 137.468 197.96V200.82H136.648C136.235 200.82 135.855 200.867 135.508 200.96C135.161 201.04 134.861 201.187 134.608 201.4C134.368 201.613 134.175 201.907 134.028 202.28C133.895 202.64 133.828 203.093 133.828 203.64V208.18H131.128Z" fill="black"/>
</svg>
