<svg xmlns="http://www.w3.org/2000/svg" width="50" height="50" viewBox="0 0 50 50"><defs><style>.cls-1{fill:#7559a6;}.cls-2{opacity:0.15;}.cls-3{fill:#fff;}</style></defs><g id="Layer_2" data-name="Layer 2"><g id="Layer_1-2" data-name="Layer 1"><g id="icon-transport"><path class="cls-1" d="M50,50V24.83C50,2.88,23.47-8.48,7.5,7.48S2.9,50,24.83,50Z"/><g class="cls-2"><circle cx="24.87" cy="25.13" r="19.69" transform="translate(-0.42 0.42) rotate(-0.96)"/></g><path class="cls-3" d="M35.94,18.72H33.83l-1.67-2.67a3.59,3.59,0,0,0-2.9-1.58H20.39a3.59,3.59,0,0,0-2.9,1.58l-1.67,2.67H13.71c-1,0-1.3,1.54-.37,1.83l1.13.35-.51.82a9.37,9.37,0,0,0-.79,4.5v5.5a.61.61,0,0,0,.6.61h2.56a.61.61,0,0,0,.6-.61V30.26H32.72v1.46a.61.61,0,0,0,.6.61h2.56a.61.61,0,0,0,.6-.61v-5.5a9.49,9.49,0,0,0-.79-4.5l-.51-.82,1.13-.35C37.24,20.26,36.92,18.72,35.94,18.72ZM16.23,20.21l2.22-3.57a2.44,2.44,0,0,1,1.94-1h8.87a2.44,2.44,0,0,1,1.94,1l2.22,3.57a.43.43,0,0,1-.37.69H16.6A.43.43,0,0,1,16.23,20.21Zm1.89,5.62H16a1.32,1.32,0,1,1,0-2.63,1.27,1.27,0,0,1,.44.07l2,.73a.94.94,0,0,1-.31,1.83Zm10,2.62a.38.38,0,0,1-.38.38H21.93a.38.38,0,0,1-.38-.38v-.68a.38.38,0,0,1,.38-.37h5.79a.38.38,0,0,1,.38.37Zm5.6-2.62H31.53A.94.94,0,0,1,31.21,24l2-.73a1.27,1.27,0,0,1,.44-.07,1.32,1.32,0,1,1,0,2.63Z"/></g></g></g></svg>