<svg xmlns="http://www.w3.org/2000/svg" width="50" height="50" viewBox="0 0 50 50"><defs><style>.cls-1{fill:#2373ba;}.cls-2{opacity:0.15;}.cls-3{fill:#fff;}</style></defs><g id="Layer_2" data-name="Layer 2"><g id="Layer_1-2" data-name="Layer 1"><g id="icon-product"><path class="cls-1" d="M50,50H24.83C2.88,50-8.48,23.47,7.48,7.5S50,2.9,50,24.83Z"/><g class="cls-2"><circle cx="25.13" cy="25.13" r="19.69" transform="translate(-0.43 0.44) rotate(-0.99)"/></g><path class="cls-3" d="M36.28,15.43H33a.65.65,0,0,0-.64.5l-.63,2.68-17.51,0a.65.65,0,0,0-.52.25.63.63,0,0,0-.12.56l2.18,9a.65.65,0,0,0,.64.5H29.3l-.41,1.75H18.1A2.35,2.35,0,1,0,20.45,33a2.25,2.25,0,0,0-.25-1H27a2.37,2.37,0,0,0-.24,1,2.35,2.35,0,1,0,3.42-2.09l3.36-14.13h2.75a.66.66,0,0,0,.66-.66A.65.65,0,0,0,36.28,15.43ZM18.1,34a1,1,0,1,1,1-1A1,1,0,0,1,18.1,34Zm3.17-10.81-.39-3.24,4.68,0-.39,3.21ZM25,24.49l-.37,3.06H21.79l-.37-3.06Zm-9.16-1.31-.8-3.27,4.51,0L20,23.18Zm.32,1.31h3.93l.37,3.06H16.92ZM29.09,34a1,1,0,1,1,1-1A1,1,0,0,1,29.09,34Zm.52-6.44H26l.37-3.06h4Zm1-4.37H26.48l.38-3.2,4.54,0Z"/></g></g></g></svg>