<svg xmlns="http://www.w3.org/2000/svg" width="50" height="50" viewBox="0 0 50 50"><defs><style>.cls-1{fill:#cf4927;}.cls-2{opacity:0.15;}.cls-3{fill:#fff;}</style></defs><g id="Layer_2" data-name="Layer 2"><g id="Layer_1-2" data-name="Layer 1"><g id="icon-food"><path class="cls-1" d="M50,50H24.83C2.88,50-8.48,23.47,7.48,7.5S50,2.9,50,24.83Z"/><g class="cls-2"><circle cx="25.13" cy="25.13" r="19.69" transform="translate(-0.43 0.43) rotate(-0.98)"/></g><path class="cls-3" d="M30.54,13.73h0a1,1,0,0,0-1.85-.25,19.32,19.32,0,0,0-1,2.33,24.65,24.65,0,0,0-1.38,7,6.27,6.27,0,0,0,2.3,4.87v7.87a1,1,0,1,0,1.95,0V13.89h0A.81.81,0,0,0,30.54,13.73Z"/><path class="cls-3" d="M23.68,21.47v-8a.59.59,0,1,0-1.17,0v6.4a.59.59,0,1,1-1.17,0v-6.4a.59.59,0,0,0-1.18,0v6.4a.58.58,0,0,1-.58.59.59.59,0,0,1-.59-.59v-6.4a.59.59,0,1,0-1.17,0v8h0a2.93,2.93,0,0,0,1.95,2.76v11.3a1,1,0,0,0,2,0V24.23a2.92,2.92,0,0,0,1.95-2.76Z"/></g></g></g></svg>