<svg width="162" height="209" viewBox="0 0 162 209" fill="none" xmlns="http://www.w3.org/2000/svg">
<path d="M133.831 165.853C130.109 165.853 126.557 165.924 123.304 166.052C123.309 166.026 123.312 165.999 123.313 165.973C123.313 164.851 119.438 163.827 113.046 163.044C131.87 162.028 144.489 160.163 144.489 158.029C144.489 154.81 115.758 152.2 80.317 152.2C44.8759 152.2 16.1452 154.81 16.1452 158.029C16.1452 158.63 17.1455 159.209 19.0011 159.754C7.94495 160.127 0 161.157 0 162.368C0 163.894 12.6115 165.132 28.1687 165.132C33.1487 165.132 37.8258 165.005 41.8851 164.782C40.9051 165.161 40.3791 165.56 40.3791 165.973C40.3791 168.428 58.9446 170.419 81.8463 170.419C91.3615 170.419 100.126 170.075 107.124 169.497C110.872 170.591 121.413 171.38 133.831 171.38C149.388 171.38 162 170.143 162 168.616C162 167.09 149.388 165.853 133.831 165.853Z" fill="#3F3D56"/>
<path d="M23.2214 149.885C24.8429 155.842 30.3971 159.532 30.3971 159.532C30.3971 159.532 33.3222 153.563 31.7006 147.605C30.0791 141.647 24.525 137.958 24.525 137.958C24.525 137.958 21.5999 143.927 23.2214 149.885Z" fill="#3F3D56"/>
<path d="M25.6041 148.604C30.0536 152.909 30.5971 159.527 30.5971 159.527C30.5971 159.527 23.9265 159.165 19.477 154.86C15.0275 150.555 14.484 143.937 14.484 143.937C14.484 143.937 21.1546 144.299 25.6041 148.604Z" fill="#6C63FF"/>
<path d="M81.6244 21.8893C81.6244 21.8893 82.1351 22.471 81.2601 23.5963C80.3852 24.7217 81.0917 27.1637 82.7539 27.2259C84.4162 27.2881 85.2223 27.9801 84.8215 28.8916C84.4208 29.8031 83.9392 31.969 85.7495 31.6397C87.5598 31.3104 88.1319 32.0267 87.8114 32.5772C87.4909 33.1277 88.6186 31.4824 88.6186 31.4824C88.6186 31.4824 89.6274 32.9761 90.8655 31.9304C92.1037 30.8848 92.5959 21.4065 90.0718 21.2459C87.5477 21.0852 81.6244 21.8893 81.6244 21.8893Z" fill="#2F2E41"/>
<path d="M94.4206 66.964L94.9958 70.9657H97.5844L96.7215 66.3922L94.4206 66.964Z" fill="#9F616A"/>
<path d="M97.8719 68.5361C97.8719 68.5361 101.323 71.6805 100.46 71.9663C99.5976 72.2522 96.4339 75.6824 95.8587 75.9682C95.3442 76.2239 89.819 77.9692 90.6819 75.9682C91.5447 73.9673 93.5579 72.8239 93.5579 72.8239L94.1331 69.3936L97.8719 68.5361Z" fill="#F2F2F2"/>
<path d="M97.8719 68.5361C97.8719 68.5361 101.323 71.6805 100.46 71.9663C99.5976 72.2522 96.4339 75.6824 95.8587 75.9682C95.3442 76.2239 89.819 77.9692 90.6819 75.9682C91.5447 73.9673 93.5579 72.8239 93.5579 72.8239L94.1331 69.3936L97.8719 68.5361Z" fill="black"/>
<path d="M97.8719 63.9624L98.4472 67.9644H101.036L100.173 63.3907L97.8719 63.9624Z" fill="#9F616A"/>
<path d="M87.0562 53.3393L90.8257 40.9514C90.8257 40.9514 84.4984 35.2344 88.8124 33.5192C93.1265 31.8041 94.2769 40.3797 94.2769 40.3797L92.8389 55.244H87.0868L87.0562 53.3393Z" fill="#FFB8B8"/>
<path d="M95.8587 44.2387C95.8587 44.2387 88.4255 53.7144 89.5537 55.1224C90.6819 56.5303 92.6951 65.1059 92.6951 65.1059C92.6951 65.1059 92.4075 68.5361 93.5579 68.5361C94.7083 68.5361 97.5843 67.9644 97.5843 67.1068C97.5843 66.2493 94.9959 55.3869 94.9959 55.3869L102.474 45.6679L95.8587 44.2387Z" fill="#6C63FF"/>
<path d="M96.4339 44.8104L103.912 40.8085C103.912 40.8085 109.088 43.3811 107.65 45.6679C106.212 47.9548 99.5976 53.9576 99.5976 53.9576C99.5976 53.9576 101.611 63.6766 101.323 63.9625C101.036 64.2483 97.8719 65.3917 97.0091 65.1059C96.1463 64.82 91.5447 53.6718 92.6951 53.1001C93.8455 52.5284 97.5843 46.5255 97.5843 46.5255L96.4339 44.8104Z" fill="#6C63FF"/>
<path d="M76.0141 149.718C76.0141 149.718 81.1909 152.862 81.7661 152.862C82.3414 152.862 90.1066 154.863 86.6554 156.293C83.2042 157.722 69.9744 155.721 70.262 154.863C70.5496 154.006 70.262 148.86 70.8372 148.86C71.4124 148.86 76.0141 149.718 76.0141 149.718Z" fill="#2F2E41"/>
<path d="M81.7662 153.72C81.7662 153.72 86.943 156.864 87.5182 156.864C88.0934 156.864 95.8587 158.865 92.4075 160.295C88.9562 161.724 75.7265 159.723 76.0141 158.865C76.3017 158.008 76.0141 152.862 76.5893 152.862C77.1645 152.862 81.7662 153.72 81.7662 153.72Z" fill="#2F2E41"/>
<path d="M76.3017 93.1193C76.3017 93.1193 77.1645 97.4071 78.6025 100.551C80.0405 103.696 78.3149 118.56 77.4521 120.847C76.5893 123.134 68.2488 150.29 70.8372 150.576C73.4256 150.861 78.6025 150.576 78.6025 150.576L86.943 124.563L85.505 89.6891L76.3017 93.1193Z" fill="#575A88"/>
<path d="M76.3017 93.1193C76.3017 93.1193 77.1645 97.4071 78.6025 100.551C80.0405 103.696 78.3149 118.56 77.4521 120.847C76.5893 123.134 68.2488 150.29 70.8372 150.576C73.4256 150.861 78.6025 150.576 78.6025 150.576L86.943 124.563L85.505 89.6891L76.3017 93.1193Z" fill="black"/>
<path d="M78.0273 93.4052C78.0273 93.4052 79.1777 101.123 81.7661 102.838C84.3546 104.553 83.4918 106.269 83.4918 106.269L82.3414 121.419C82.3414 121.419 71.1248 148.86 74.5761 152.291C78.0273 155.721 81.1909 154.292 82.629 154.006C84.067 153.72 86.6554 147.717 85.2174 146.002C83.7794 144.287 88.0934 133.996 89.2438 132.281C90.3943 130.566 89.2438 128.279 90.6819 127.707C92.1199 127.136 95.2835 123.42 95.2835 120.847C95.2835 118.274 99.31 90.8325 96.7215 89.1174C94.1331 87.4023 77.5415 92.6573 77.5415 92.6573L78.0273 93.4052Z" fill="#575A88"/>
<path d="M72.5628 53.3859C76.0573 53.3859 78.8901 50.5704 78.8901 47.0972C78.8901 43.624 76.0573 40.8085 72.5628 40.8085C69.0684 40.8085 66.2356 43.624 66.2356 47.0972C66.2356 50.5704 69.0684 53.3859 72.5628 53.3859Z" fill="#FFB8B8"/>
<path d="M86.943 29.3744C89.8021 29.3744 92.1199 27.0707 92.1199 24.2291C92.1199 21.3874 89.8021 19.0837 86.943 19.0837C84.0839 19.0837 81.7661 21.3874 81.7661 24.2291C81.7661 27.0707 84.0839 29.3744 86.943 29.3744Z" fill="#9F616A"/>
<path d="M76.8769 47.0972C76.8769 47.0972 80.3281 53.3859 82.0538 53.3859C83.7794 53.3859 75.1513 59.9605 75.1513 59.9605C75.1513 59.9605 72.2752 51.6708 71.7 51.385C71.1248 51.0991 76.8769 47.0972 76.8769 47.0972Z" fill="#FFB8B8"/>
<path d="M78.0273 52.8142C78.0273 52.8142 70.5496 55.3869 70.8372 56.2444C71.1248 57.102 68.824 59.103 68.824 59.9605C68.824 60.8181 68.2488 68.5361 71.7 74.8248C75.1513 81.1136 80.6157 85.6872 78.0273 88.5457C75.4389 91.4042 71.4124 96.2637 75.7265 96.2637C80.0405 96.2637 86.943 89.975 93.2703 92.2618C99.5976 94.5486 98.1595 85.973 98.1595 85.973C98.1595 85.973 99.0224 79.3984 97.2967 77.3975C95.5711 75.3965 89.5314 61.1039 89.5314 59.3888C89.5314 57.6737 83.7794 51.0991 82.3414 51.0991C80.9033 51.0991 78.0273 52.8142 78.0273 52.8142Z" fill="#8985A8"/>
<path d="M88.381 27.3734C88.381 27.3734 90.723 31.7991 90.8462 32.5877C90.9695 33.3763 94.9959 27.3734 94.9959 27.3734L90.3943 24.2291L88.381 27.3734Z" fill="#9F616A"/>
<path d="M89.2439 30.8036L94.1331 25.6583L99.8852 28.231C99.8852 28.231 105.25 39.9509 105.587 40.8085C105.925 41.666 97.0091 45.6679 96.1463 45.6679C95.2835 45.6679 89.2439 36.8065 89.2439 36.8065C89.2439 36.8065 87.8058 32.5188 89.2439 30.8036Z" fill="#F2F2F2"/>
<path d="M86.943 37.6641V42.8093H90.3943L89.2591 37.6641H86.943Z" fill="#9F616A"/>
<path d="M88.9122 41.5231C88.476 41.5172 88.0485 41.6436 87.6865 41.8855C87.3245 42.1273 87.0453 42.4731 86.8861 42.8767C86.6613 43.481 86.7376 44.1162 87.8058 44.3816C90.1067 44.9533 90.3943 44.3816 90.3943 44.3816C90.3943 44.3816 94.3884 43.8099 93.5417 42.6665C92.6951 41.5231 90.3943 41.5231 90.3943 41.5231H88.9122Z" fill="#9F616A"/>
<path d="M101.323 66.2493C101.323 66.2493 104.774 69.3936 103.912 69.6795C103.049 69.9653 99.8852 73.3956 99.31 73.6814C98.7955 73.9371 93.2703 75.6824 94.1331 73.6814C94.9959 71.6804 97.0091 70.537 97.0091 70.537L97.5843 67.1068L101.323 66.2493Z" fill="#F2F2F2"/>
<path d="M70.3084 42.2564C70.7043 42.0259 71.1718 41.7387 71.1831 41.2829C71.1728 41.1154 71.1135 40.9545 71.0125 40.82C70.9115 40.6855 70.7732 40.5833 70.6146 40.5258C70.2955 40.4164 69.9576 40.3711 69.6207 40.3927C69.4914 40.3861 69.3619 40.3989 69.2365 40.4306C68.9089 40.531 68.7201 40.8616 68.4621 41.0859C68.0874 41.4117 67.5713 41.5075 67.0894 41.6317C66.2821 41.8399 65.5078 42.1588 64.7889 42.5793C64.647 42.6506 64.5226 42.7523 64.4248 42.877C64.3117 43.1066 64.2613 43.3618 64.2785 43.6169C64.2136 44.5867 63.6286 45.431 63.1918 46.3007C62.7551 47.1703 62.4682 48.2537 62.9808 49.0815C63.1842 49.3391 63.3741 49.607 63.5496 49.8841C63.9129 50.6365 63.4595 51.5629 63.722 52.3557C63.8394 52.6678 64.0279 52.9486 64.2726 53.1763C64.7777 53.6819 65.4 54.0564 66.0848 54.2668C66.7384 54.4669 67.5492 54.6002 67.8052 55.2304C67.915 55.5008 67.8926 55.8193 68.0475 56.0669C68.2395 56.3737 68.6351 56.4727 68.9925 56.5382C69.3936 56.6293 69.8065 56.659 70.2167 56.6262C70.4218 56.6086 70.6212 56.5497 70.8027 56.4531C70.9842 56.3565 71.1441 56.2243 71.2726 56.0644C71.3886 55.8388 71.5322 55.6283 71.7002 55.4377C72.1166 55.0918 72.7492 55.365 73.284 55.2733C73.5007 55.2327 73.7012 55.1314 73.862 54.9814C74.0228 54.8314 74.1372 54.6389 74.1917 54.4266C74.2064 54.2003 74.2692 53.9798 74.3759 53.7794C74.7081 53.357 75.582 53.6552 75.8013 53.1654C75.9438 52.8471 75.6457 52.5109 75.3574 52.3127C74.8874 51.9895 74.362 51.741 73.9404 51.3574C73.5189 50.9739 73.207 50.4 73.339 49.8473C73.5369 49.0185 74.6257 48.5622 74.6617 47.7111C74.6824 47.2235 74.3299 46.7956 73.9352 46.5053C73.5406 46.215 73.0833 46.0064 72.7305 45.667C72.4727 45.4189 72.2782 45.1075 71.9979 44.8848C71.491 44.4819 70.7974 44.4331 70.1517 44.3672C69.8054 44.3319 68.424 44.1729 68.4783 43.6486C68.5235 43.2131 69.9569 42.4612 70.3084 42.2564Z" fill="#2F2E41"/>
<path d="M89.2439 30.5178C89.2439 30.5178 86.0802 31.6612 86.0802 33.0905C86.0802 34.5197 84.6422 39.0934 86.0802 39.0934C87.5182 39.0934 90.3943 37.9961 90.3943 37.9961L89.2439 30.5178Z" fill="#F2F2F2"/>
<path d="M88.381 51.0991C88.381 51.0991 96.7215 48.2406 97.0091 48.2406C97.2967 48.2406 101.323 45.9538 101.036 45.0962L99.8852 37.9499C99.8852 37.9499 95.2835 28.5168 98.4472 28.5168C101.611 28.5168 103.336 35.949 103.336 35.949C103.336 35.949 110.239 48.8123 106.5 51.6708C102.761 54.5294 87.2306 59.6747 86.3678 58.8171C85.505 57.9596 88.381 51.0991 88.381 51.0991Z" fill="#FFB8B8"/>
<path d="M96.4339 32.5188L98.3752 34.3782L95.8587 36.8065C95.8587 36.8065 92.4075 35.3773 92.6951 36.2348C92.9827 37.0924 94.7083 39.6651 95.8587 39.6651C97.0091 39.6651 102.997 35.949 103.023 34.8056C103.049 33.6622 99.31 29.6602 98.4471 29.3744C97.5843 29.0885 96.4339 32.5188 96.4339 32.5188Z" fill="#9F616A"/>
<path d="M92.7836 30.5262C92.7836 30.5262 97.0091 34.2339 97.5844 34.2339C98.1596 34.2339 99.2057 28.6633 99.2057 28.6633C99.2057 28.6633 95.7963 26.4553 94.5333 27.0573C93.2703 27.6593 92.7836 30.5262 92.7836 30.5262Z" fill="#F2F2F2"/>
<path d="M78.0273 54.5293C78.0273 54.5293 78.0273 50.5274 86.6554 50.5274H90.3942L88.6686 59.9605L82.9166 61.6756L78.0273 54.5293Z" fill="#8985A8"/>
<path d="M96.8743 22.1437C96.0287 22.1396 95.1841 22.0878 94.3444 21.9886C93.6849 20.4047 92.845 19.0757 91.9365 18.5802C91.2916 18.0067 90.2971 17.5899 89.5168 17.2604C87.6005 16.4513 84.4104 16.956 84.2239 17.8762C80.4532 19.667 81.406 22.812 81.406 22.812C81.9919 24.0429 83.3064 23.4974 84.4215 22.9399C84.7063 23.8322 85.3789 24.5895 86.3418 24.6255C88.1833 24.6944 89.0763 25.461 88.6324 26.4708C88.1884 27.4806 87.6549 29.8799 89.6603 29.5151C91.6657 29.1503 92.2996 29.9438 91.9445 30.5537C91.5895 31.1636 92.8387 29.3408 92.8387 29.3408C92.8387 29.3408 93.9562 30.9955 95.3279 29.8372C95.4666 29.7044 95.5655 29.536 95.6136 29.3507C96.2515 29.6235 96.7567 29.7271 97.0435 29.5995C98.6864 28.8689 97.6661 27.1533 97.6661 27.1533C97.6661 27.1533 99.8594 26.8189 99.1527 26.8743C98.446 26.9298 97.9989 26.0192 99.1947 24.3781C100.391 22.737 97.9824 22.1809 96.8743 22.1437Z" fill="#2F2E41"/>
<path d="M85.7478 20.8571L84.9291 20.5863L84.1118 23.0274L84.9305 23.2982L85.7478 20.8571Z" fill="#6C63FF"/>
<path d="M34.8311 66.5444C23.6418 66.5957 14.5341 66.76 14.5341 66.76C14.5341 66.76 25.36 52.5074 34.7905 57.7879C44.221 63.0684 55.0542 66.5744 55.0542 66.5744C55.0542 66.5744 46.0204 66.4932 34.8311 66.5444Z" fill="#F2F2F2"/>
<path d="M115.348 10.3099C104.158 10.3612 95.0506 10.5255 95.0506 10.5255C95.0506 10.5255 105.876 -3.72715 115.307 1.55335C124.737 6.83385 135.571 10.3399 135.571 10.3399C135.571 10.3399 126.537 10.2586 115.348 10.3099Z" fill="#F2F2F2"/>
<path d="M133.939 70.6298C145.128 70.6811 154.236 70.8454 154.236 70.8454C154.236 70.8454 143.41 56.5928 133.98 61.8733C124.549 67.1538 113.716 70.6598 113.716 70.6598C113.716 70.6598 122.75 70.5786 133.939 70.6298Z" fill="#F2F2F2"/>
<path d="M49.86 208.38V194.38H55.12C56.24 194.38 57.1733 194.573 57.92 194.96C58.6667 195.333 59.22 195.847 59.58 196.5C59.94 197.153 60.12 197.9 60.12 198.74C60.12 199.5 59.9467 200.213 59.6 200.88C59.2533 201.533 58.7067 202.06 57.96 202.46C57.2267 202.86 56.28 203.06 55.12 203.06H52.56V208.38H49.86ZM52.56 200.88H54.94C55.8067 200.88 56.4267 200.687 56.8 200.3C57.1867 199.913 57.38 199.393 57.38 198.74C57.38 198.06 57.1867 197.533 56.8 197.16C56.4267 196.773 55.8067 196.58 54.94 196.58H52.56V200.88Z" fill="black"/>
<path d="M64.802 208.62C63.962 208.62 63.2687 208.487 62.722 208.22C62.1754 207.94 61.7687 207.573 61.502 207.12C61.2354 206.667 61.102 206.167 61.102 205.62C61.102 205.007 61.2554 204.467 61.562 204C61.882 203.533 62.362 203.173 63.002 202.92C63.642 202.653 64.442 202.52 65.402 202.52H67.902C67.902 202.027 67.8287 201.627 67.682 201.32C67.5487 201 67.342 200.76 67.062 200.6C66.782 200.44 66.4154 200.36 65.962 200.36C65.4554 200.36 65.0154 200.473 64.642 200.7C64.282 200.927 64.062 201.267 63.982 201.72H61.362C61.4287 200.987 61.6687 200.36 62.082 199.84C62.4954 199.307 63.0354 198.893 63.702 198.6C64.382 198.307 65.142 198.16 65.982 198.16C66.9287 198.16 67.742 198.32 68.422 198.64C69.1154 198.947 69.6487 199.407 70.022 200.02C70.4087 200.62 70.602 201.353 70.602 202.22V208.38H68.322L68.022 206.84C67.8754 207.107 67.702 207.347 67.502 207.56C67.302 207.773 67.0687 207.96 66.802 208.12C66.5354 208.28 66.2354 208.4 65.902 208.48C65.5687 208.573 65.202 208.62 64.802 208.62ZM65.442 206.54C65.7887 206.54 66.102 206.48 66.382 206.36C66.662 206.227 66.8954 206.053 67.082 205.84C67.282 205.613 67.4354 205.36 67.542 205.08C67.662 204.8 67.742 204.5 67.782 204.18V204.16H65.702C65.302 204.16 64.9687 204.213 64.702 204.32C64.4354 204.427 64.242 204.573 64.122 204.76C64.002 204.933 63.942 205.14 63.942 205.38C63.942 205.633 64.002 205.847 64.122 206.02C64.2554 206.18 64.4287 206.307 64.642 206.4C64.8687 206.493 65.1354 206.54 65.442 206.54Z" fill="black"/>
<path d="M73.0617 208.38V198.4H75.4617L75.7217 200.26C75.9751 199.82 76.2751 199.447 76.6217 199.14C76.9817 198.833 77.3951 198.593 77.8617 198.42C78.3284 198.247 78.8417 198.16 79.4017 198.16V201.02H78.5817C78.1684 201.02 77.7884 201.067 77.4417 201.16C77.0951 201.24 76.7951 201.387 76.5417 201.6C76.3017 201.813 76.1084 202.107 75.9617 202.48C75.8284 202.84 75.7617 203.293 75.7617 203.84V208.38H73.0617Z" fill="black"/>
<path d="M85.8514 208.62C84.8381 208.62 83.9381 208.407 83.1514 207.98C82.3781 207.54 81.7714 206.933 81.3314 206.16C80.8914 205.387 80.6714 204.493 80.6714 203.48C80.6714 202.44 80.8847 201.52 81.3114 200.72C81.7514 199.92 82.3581 199.293 83.1314 198.84C83.9181 198.387 84.8247 198.16 85.8514 198.16C86.8514 198.16 87.7247 198.38 88.4714 198.82C89.2181 199.247 89.8047 199.833 90.2314 200.58C90.6581 201.313 90.8714 202.153 90.8714 203.1C90.8714 203.233 90.8647 203.38 90.8514 203.54C90.8514 203.7 90.8381 203.873 90.8114 204.06H82.6114V202.4H88.1314C88.0914 201.773 87.8581 201.273 87.4314 200.9C87.0181 200.527 86.4981 200.34 85.8714 200.34C85.4047 200.34 84.9781 200.447 84.5914 200.66C84.2047 200.86 83.8981 201.173 83.6714 201.6C83.4447 202.013 83.3314 202.54 83.3314 203.18V203.76C83.3314 204.293 83.4381 204.76 83.6514 205.16C83.8647 205.56 84.1581 205.873 84.5314 206.1C84.9181 206.313 85.3514 206.42 85.8314 206.42C86.3247 206.42 86.7381 206.313 87.0714 206.1C87.4047 205.887 87.6514 205.6 87.8114 205.24H90.5714C90.3847 205.88 90.0714 206.453 89.6314 206.96C89.1914 207.467 88.6514 207.873 88.0114 208.18C87.3714 208.473 86.6514 208.62 85.8514 208.62Z" fill="black"/>
<path d="M93.0227 208.38V198.4H95.4027L95.6027 200.06C95.9227 199.487 96.3627 199.027 96.9227 198.68C97.496 198.333 98.1827 198.16 98.9827 198.16C99.8093 198.16 100.509 198.333 101.083 198.68C101.656 199.027 102.096 199.54 102.403 200.22C102.709 200.9 102.863 201.733 102.863 202.72V208.38H100.163V202.96C100.163 202.147 99.996 201.527 99.6627 201.1C99.3293 200.66 98.8027 200.44 98.0827 200.44C97.6293 200.44 97.2227 200.547 96.8627 200.76C96.516 200.973 96.236 201.287 96.0227 201.7C95.8227 202.1 95.7227 202.587 95.7227 203.16V208.38H93.0227Z" fill="black"/>
<path d="M109.847 208.38C109.141 208.38 108.521 208.273 107.987 208.06C107.467 207.833 107.061 207.467 106.767 206.96C106.474 206.44 106.327 205.733 106.327 204.84V200.66H104.627V198.4H106.327L106.627 195.68H109.027V198.4H111.667V200.66H109.027V204.88C109.027 205.333 109.127 205.647 109.327 205.82C109.527 205.993 109.867 206.08 110.347 206.08H111.627V208.38H109.847Z" fill="black"/>
</svg>
